<?xml version="1.0" standalone="no"?>
<!DOCTYPE svg PUBLIC "-//W3C//DTD SVG 20010904//EN"
 "http://www.w3.org/TR/2001/REC-SVG-20010904/DTD/svg10.dtd">
<svg version="1.0" xmlns="http://www.w3.org/2000/svg"
 width="1024.000000pt" height="1024.000000pt" viewBox="0 0 1024.000000 1024.000000"
 preserveAspectRatio="xMidYMid meet">
<metadata>
Created by potrace 1.16, written by Peter Selinger 2001-2019
</metadata>
<defs>
<g id="elephant_body" transform="translate(0.000000,1024.000000) scale(0.100000,-0.100000)"
fill="#c63d2f" stroke="none">
<path d="M5310 7445 c-514 -6 -921 -12 -905 -13 50 -3 271 -19 1140 -82 231
-17 444 -33 474 -36 l54 -6 -29 -28 -29 -29 -545 -15 c-300 -9 -649 -19 -776
-22 l-231 -6 -32 -52 c-17 -29 -31 -55 -31 -59 0 -4 331 -7 736 -7 l736 0 -47
-57 c-94 -118 -188 -243 -184 -247 2 -2 52 -6 111 -10 l108 -6 77 98 c129 163
326 382 345 382 45 0 734 -298 898 -389 51 -28 94 -51 97 -51 6 0 -17 41 -64
113 -25 37 -43 70 -41 72 13 13 328 -48 448 -87 151 -49 192 -82 276 -226 73
-124 138 -217 257 -366 94 -117 96 -121 103 -185 5 -51 21 -94 77 -208 38 -79
68 -145 66 -146 -2 -2 -28 -18 -57 -36 -49 -31 -122 -104 -122 -122 0 -5 16 3
36 16 37 25 163 69 172 61 7 -8 52 -136 52 -150 0 -7 -15 -19 -33 -28 -40 -19
-94 -64 -107 -89 -9 -16 -5 -16 42 5 29 13 67 27 85 30 31 7 31 7 42 -45 11
-48 30 -211 31 -251 0 -17 103 -78 131 -78 19 0 4 285 -21 405 -31 146 -93
321 -171 484 -63 131 -69 150 -69 207 l0 63 -102 128 c-126 157 -235 312 -288
407 -94 171 -194 238 -454 307 -128 33 -271 54 -476 69 l-145 10 -185 84
c-173 78 -450 189 -495 198 -11 2 -441 -1 -955 -7z"/>
<path d="M3636 7155 l-36 -55 123 0 124 0 32 51 c17 28 31 52 31 55 0 2 -53 4
-119 4 l-118 0 -37 -55z"/>
<path d="M4034 7168 c-15 -24 -31 -49 -37 -55 -7 -10 17 -13 116 -13 l125 0
31 50 c17 28 31 52 31 55 0 3 -54 5 -120 5 l-120 0 -26 -42z"/>
<path d="M6415 6988 c180 -148 326 -300 388 -401 62 -102 81 -180 82 -337 0
-74 -3 -164 -8 -200 l-7 -65 55 130 c82 191 100 255 99 350 -1 104 -29 177
-94 248 -50 54 -151 112 -450 257 -100 49 -103 49 -65 18z"/>
<path d="M5410 6980 c-96 -4 -467 -17 -825 -29 -357 -12 -692 -24 -743 -27
l-92 -6 -45 -69 c-25 -38 -45 -71 -45 -73 0 -2 413 -4 918 -5 l918 -2 46 68
c25 37 60 87 78 111 l32 42 -34 -2 c-18 0 -112 -4 -208 -8z"/>
<path d="M3353 6913 l-93 -4 -40 -59 c-22 -32 -40 -61 -40 -64 0 -4 60 -6 134
-6 l133 0 47 70 46 70 -47 -2 c-27 -1 -90 -4 -140 -5z"/>
<path d="M2801 6842 c-17 -27 -31 -52 -31 -55 0 -4 31 -7 70 -7 l69 0 29 43
c16 23 32 48 36 55 5 9 -11 12 -67 12 l-75 0 -31 -48z"/>
<path d="M4560 6664 c-446 -40 -821 -182 -1150 -435 -90 -69 -330 -299 -330
-316 0 -4 74 -8 164 -7 l164 1 112 102 c296 266 633 413 1030 450 63 6 292 11
508 11 l392 0 12 -27 c40 -99 116 -240 168 -308 l60 -80 -132 -7 c-73 -4 -479
-17 -903 -29 -423 -11 -772 -23 -774 -25 -2 -2 13 -4 35 -4 21 0 113 -5 204
-10 91 -6 323 -19 515 -30 193 -11 494 -29 670 -40 176 -10 374 -22 440 -26
137 -7 117 3 300 -149 209 -175 344 -339 474 -577 24 -43 41 -78 39 -78 -3 0
-34 37 -69 83 -125 161 -381 399 -564 523 l-80 54 -675 -2 -675 -3 250 -28
c138 -15 396 -43 575 -63 l325 -35 65 -36 c113 -62 203 -125 284 -203 173
-165 250 -337 250 -555 0 -148 -23 -228 -135 -478 -50 -111 -125 -278 -166
-372 -151 -341 -198 -431 -251 -484 -59 -59 -161 -112 -323 -169 -82 -29 -144
-59 -215 -105 -54 -35 -114 -72 -133 -81 l-34 -18 5 104 c3 56 13 135 22 175
17 72 18 72 54 78 174 28 253 53 350 113 65 39 166 121 159 128 -2 3 -28 -4
-56 -16 -28 -11 -53 -20 -55 -20 -2 0 7 33 20 74 45 144 55 284 30 426 -13 73
-13 76 9 115 29 50 158 199 216 248 23 20 39 37 34 37 -10 0 -245 -129 -289
-159 l-30 -20 -22 39 -23 40 135 406 c74 224 133 408 132 410 -2 2 -41 -46
-86 -106 -204 -267 -408 -440 -687 -582 -147 -74 -178 -81 -80 -18 243 158
432 356 563 591 l35 62 -114 -114 c-169 -168 -324 -274 -530 -362 -81 -34
-203 -77 -221 -77 -4 0 -8 28 -8 63 -1 330 -166 651 -433 841 -140 100 -361
180 -569 206 -94 11 -1267 14 -1739 3 l-304 -7 375 -27 c206 -15 517 -37 690
-49 173 -12 316 -23 318 -25 5 -5 -207 -305 -286 -405 -182 -228 -374 -379
-555 -436 -57 -18 -57 -18 -105 6 -31 15 -72 24 -119 28 -63 4 -83 0 -176 -32
-58 -20 -115 -36 -127 -36 -34 0 -15 -16 36 -30 44 -13 46 -14 23 -23 -37 -15
-215 -11 -298 7 -41 9 -76 14 -78 12 -3 -2 21 -25 53 -49 125 -99 227 -133
362 -123 45 3 82 4 82 2 0 -2 -19 -19 -42 -36 l-43 -32 85 4 c109 5 192 42
265 115 42 43 60 54 113 67 199 50 414 177 602 354 49 45 90 82 93 82 2 0 -4
-35 -14 -77 -31 -129 -58 -337 -71 -538 -12 -206 -22 -242 -88 -334 l-30 -41
-224 0 -223 0 -25 -37 c-14 -21 -33 -51 -43 -67 l-19 -29 222 7 c134 5 222 4
222 -2 0 -14 -100 -152 -113 -158 -12 -4 -349 -67 -530 -99 -54 -10 -97 -18
-95 -19 7 -5 883 13 968 19 l95 7 -50 -37 c-27 -20 -81 -52 -120 -70 -81 -39
-232 -91 -241 -82 -3 3 6 23 20 44 l26 38 -87 3 c-47 2 -92 1 -99 -2 -12 -5
-65 -78 -113 -159 l-23 -38 156 3 c86 2 156 0 156 -3 0 -8 -97 -44 -175 -65
-41 -11 -141 -18 -320 -25 -183 -6 -263 -13 -271 -22 -6 -6 -24 -33 -39 -59
l-27 -48 191 -2 190 -3 -65 -100 c-72 -109 -108 -175 -118 -217 -4 -18 -15
-29 -29 -33 -12 -2 -168 -23 -347 -46 -179 -22 -383 -49 -455 -59 l-130 -18
864 -1 863 -1 -6 68 c-4 37 -12 102 -18 145 l-10 78 37 62 c146 239 342 392
679 531 346 143 528 255 696 425 182 186 291 406 321 654 13 104 6 252 -16
342 -32 133 -4 96 52 -70 37 -110 37 -110 38 -280 0 -197 -14 -265 -90 -421
-42 -87 -139 -229 -183 -268 -47 -41 -39 -41 283 -10 315 30 630 102 855 195
56 22 103 39 105 37 2 -2 16 -39 31 -83 49 -141 37 -341 -29 -475 -20 -41 -28
-47 -87 -67 -36 -11 -114 -26 -174 -33 -61 -6 -113 -13 -118 -16 -10 -6 -62
-173 -79 -249 -20 -96 -15 -278 10 -355 31 -97 29 -95 92 -75 75 25 192 84
291 148 55 36 117 65 183 87 133 44 288 117 351 167 28 23 68 67 89 99 32 49
334 700 423 912 24 59 32 67 121 130 110 78 296 253 382 360 33 41 98 131 143
201 46 69 97 136 113 148 112 81 276 82 435 2 79 -39 124 -74 215 -162 l72
-70 -6 119 -6 119 89 -85 c193 -186 446 -312 709 -356 122 -20 370 -14 485 10
96 21 256 75 346 118 l72 33 -237 1 c-201 0 -250 3 -331 21 -193 42 -376 124
-530 239 -114 84 -151 126 -185 209 -37 88 -106 192 -184 275 l-61 65 41 -90
c23 -49 50 -114 60 -144 l19 -53 -28 8 c-15 5 -65 9 -112 9 -76 0 -92 -4 -146
-32 l-62 -32 -30 67 c-17 37 -40 93 -52 125 -32 85 -57 109 -159 151 -112 46
-178 103 -220 188 -24 47 -31 55 -31 35 0 -38 34 -140 64 -191 14 -24 53 -67
87 -95 34 -29 71 -63 81 -76 17 -21 58 -123 83 -203 l7 -23 -40 20 c-22 11
-70 28 -108 37 -142 35 -245 109 -290 209 -42 93 -53 269 -28 470 l5 40 -20
-35 c-30 -57 -109 -260 -182 -473 -68 -200 -97 -255 -172 -326 l-25 -22 -43
81 c-83 156 -227 327 -387 460 -50 41 -91 80 -91 87 -1 6 14 23 32 38 40 34
378 355 373 355 -2 0 -114 -50 -247 -111 -134 -61 -264 -120 -288 -130 l-43
-19 -64 67 c-107 113 -241 330 -218 353 10 10 458 128 614 162 l105 23 -65 7
c-71 7 -1717 19 -1790 12z m-1008 -1023 c243 -63 438 -238 514 -461 109 -323
-2 -696 -285 -962 -95 -90 -199 -160 -351 -237 -125 -64 -359 -165 -366 -158
-2 2 34 27 81 56 265 162 471 410 561 675 13 38 24 72 24 75 0 2 -24 -35 -52
-84 -145 -243 -363 -409 -683 -518 -138 -47 -353 -102 -363 -93 -5 6 6 23 166
258 l79 117 7 155 c19 460 120 825 313 1135 l46 74 116 -6 c64 -3 151 -15 193
-26z m4548 -396 c110 -107 177 -160 283 -224 98 -59 268 -133 360 -157 84 -21
90 -31 15 -27 -241 14 -450 85 -660 225 -105 70 -277 233 -262 248 16 16 87
28 134 23 40 -5 54 -14 130 -88z"/>
<path d="M3630 6628 c-135 -11 -551 -44 -925 -73 l-680 -53 798 -1 798 -1 52
27 c29 14 104 48 167 74 136 57 148 55 -210 27z"/>
<path d="M7312 6395 c4 -4 65 -42 135 -84 123 -74 128 -78 145 -126 38 -105
96 -145 214 -145 l71 0 127 -79 c69 -44 126 -77 126 -74 0 6 -190 222 -273
310 -38 40 -87 81 -110 92 -23 11 -123 39 -222 61 -99 22 -189 43 -200 47 -11
3 -17 2 -13 -2z"/>
<path d="M4903 6281 c-232 -20 -425 -39 -429 -43 -4 -5 35 -8 87 -9 52 0 274
-8 494 -18 220 -10 401 -17 402 -16 1 0 -12 29 -30 63 -30 59 -34 62 -67 61
-19 -1 -225 -18 -457 -38z"/>
<path d="M1040 4940 c13 -25 41 -40 74 -40 32 0 33 10 3 38 -14 13 -36 22 -55
22 -29 0 -32 -2 -22 -20z"/>
<path d="M1320 4939 c0 -3 11 -16 24 -28 31 -29 81 -40 151 -32 l56 6 -28 27
c-25 24 -37 27 -116 30 -48 2 -87 0 -87 -3z"/>
<path d="M8075 4762 c-32 -262 -108 -414 -238 -472 -111 -51 -237 11 -237 115
0 24 -3 46 -7 48 -5 3 -35 -4 -69 -14 l-61 -19 -84 35 -84 34 -3 -23 c-5 -39
27 -146 66 -221 90 -171 269 -275 474 -275 103 0 167 15 263 60 177 82 311
225 420 445 89 181 88 169 8 182 -38 7 -71 9 -74 5 -4 -4 -22 -43 -40 -86 -73
-179 -222 -352 -361 -420 -85 -43 -184 -62 -254 -51 l-49 8 53 9 c137 21 265
124 337 272 48 97 83 216 87 297 l3 50 -72 34 -72 33 -6 -46z"/>
<path d="M820 4783 c0 -12 49 -57 77 -72 12 -6 60 -11 108 -11 l86 0 -27 34
c-26 33 -29 34 -118 39 -50 2 -99 8 -108 12 -10 4 -18 3 -18 -2z"/>
<path d="M6715 4605 c-71 -73 -170 -162 -220 -199 l-90 -67 -57 -122 c-31 -67
-57 -127 -57 -134 -1 -6 38 -24 87 -38 167 -51 282 -120 282 -170 0 -37 -54
-74 -185 -131 -153 -65 -143 -49 -120 -189 28 -172 83 -300 170 -394 48 -51
52 -53 75 -41 53 28 113 86 201 195 53 67 146 163 223 233 113 102 137 129
166 188 33 64 35 76 35 164 0 88 -3 101 -33 162 -18 37 -95 153 -171 257 -76
105 -146 210 -156 233 -10 26 -17 71 -18 116 0 39 -1 71 -1 71 -1 -1 -59 -61
-131 -134z"/>
<path d="M1140 4591 l-55 -6 35 -22 c37 -24 53 -26 113 -17 l38 7 -22 23 c-13
13 -30 23 -38 22 -9 -1 -41 -4 -71 -7z"/>
<path d="M1424 4492 c-36 -2 -57 -9 -69 -23 -10 -10 -16 -22 -13 -24 3 -3 47
-4 97 -3 l92 3 -28 25 c-23 21 -36 25 -79 22z"/>
<path d="M4425 3944 c-55 -7 -194 -18 -310 -24 -151 -9 -216 -16 -230 -26 -11
-8 -72 -49 -135 -91 -63 -42 -117 -78 -118 -79 -2 -1 18 -35 45 -76 58 -87
106 -168 101 -173 -1 -1 -138 -23 -303 -48 l-300 -45 503 -1 504 -1 -32 -40
-32 -40 -123 0 -124 0 19 -46 c11 -25 20 -48 20 -50 0 -2 -80 -4 -177 -4
l-178 0 -33 -48 -33 -47 229 -3 229 -2 18 -88 c10 -48 19 -89 19 -92 1 -2
-246 -32 -549 -66 l-550 -62 921 -1 922 -1 -9 41 c-12 52 -45 117 -115 225
-55 84 -168 324 -219 466 -54 149 -28 245 101 367 43 42 67 70 57 70 -10 -1
-63 -8 -118 -15z"/>
<path d="M1763 3632 l-211 -2 -41 -65 c-23 -35 -41 -67 -41 -70 0 -17 249 7
325 32 84 27 202 93 185 105 -3 1 -100 2 -217 0z"/>
<path d="M1227 3545 c-15 -25 -27 -48 -27 -50 0 -3 26 -5 58 -5 l57 0 28 45
c15 25 27 48 27 50 0 3 -26 5 -58 5 l-57 0 -28 -45z"/>
<path d="M1276 3225 c-9 -14 -23 -36 -32 -50 l-16 -25 95 0 96 0 26 43 c14 24
25 47 25 50 0 4 -40 7 -89 7 -84 0 -90 -1 -105 -25z"/>
</g>
</defs>
<g>
  <use href="#elephant_body" x="-120" y="0" opacity="0.15" />
  <use href="#elephant_body" x="-60" y="0" opacity="0.4" />
  <use href="#elephant_body" x="0" y="0" opacity="1.0" />
</g>
</svg>
