<svg xmlns="http://www.w3.org/2000/svg" width="1190" height="1120" viewBox="0 0 1190 1120">
<rect width="100%" height="100%" fill="#fffdf8"/>
<text x="120" y="36" font-family="Helvetica, Arial, sans-serif" font-size="28" font-weight="700" fill="#1f2937">pg_volvec TPC-H Timing Snapshot</text>
<text x="120" y="62" font-family="Helvetica, Arial, sans-serif" font-size="14" fill="#6b7280">Local developer machine, PostgreSQL parallel disabled in-session, 3-run medians. TIMEOUT shown as 180s.</text>
<rect x="120" y="74" width="14" height="14" rx="3" fill="#336791"/>
<text x="142" y="86" font-family="Helvetica, Arial, sans-serif" font-size="13" fill="#1f2937">PostgreSQL native</text>
<rect x="310" y="74" width="14" height="14" rx="3" fill="#F4B400"/>
<text x="332" y="86" font-family="Helvetica, Arial, sans-serif" font-size="13" fill="#1f2937">pg_duckdb</text>
<rect x="500" y="74" width="14" height="14" rx="3" fill="#C63D2F"/>
<text x="522" y="86" font-family="Helvetica, Arial, sans-serif" font-size="13" fill="#1f2937">pg_volvec</text>
<line x1="120.0" y1="102" x2="120.0" y2="1080" stroke="#e5e7eb" stroke-width="1"/>
<text x="120.0" y="1100" text-anchor="middle" font-family="Helvetica, Arial, sans-serif" font-size="12" fill="#6b7280">0s</text>
<line x1="270.0" y1="102" x2="270.0" y2="1080" stroke="#e5e7eb" stroke-width="1"/>
<text x="270.0" y="1100" text-anchor="middle" font-family="Helvetica, Arial, sans-serif" font-size="12" fill="#6b7280">30s</text>
<line x1="420.0" y1="102" x2="420.0" y2="1080" stroke="#e5e7eb" stroke-width="1"/>
<text x="420.0" y="1100" text-anchor="middle" font-family="Helvetica, Arial, sans-serif" font-size="12" fill="#6b7280">60s</text>
<line x1="570.0" y1="102" x2="570.0" y2="1080" stroke="#e5e7eb" stroke-width="1"/>
<text x="570.0" y="1100" text-anchor="middle" font-family="Helvetica, Arial, sans-serif" font-size="12" fill="#6b7280">90s</text>
<line x1="720.0" y1="102" x2="720.0" y2="1080" stroke="#e5e7eb" stroke-width="1"/>
<text x="720.0" y="1100" text-anchor="middle" font-family="Helvetica, Arial, sans-serif" font-size="12" fill="#6b7280">120s</text>
<line x1="870.0" y1="102" x2="870.0" y2="1080" stroke="#e5e7eb" stroke-width="1"/>
<text x="870.0" y="1100" text-anchor="middle" font-family="Helvetica, Arial, sans-serif" font-size="12" fill="#6b7280">150s</text>
<line x1="1020.0" y1="102" x2="1020.0" y2="1080" stroke="#e5e7eb" stroke-width="1"/>
<text x="1020.0" y="1100" text-anchor="middle" font-family="Helvetica, Arial, sans-serif" font-size="12" fill="#6b7280">180s</text>
<line x1="120" y1="1080" x2="1020" y2="1080" stroke="#1f2937" stroke-width="1.2"/>
<text x="104" y="126" text-anchor="end" font-family="Helvetica, Arial, sans-serif" font-size="13" font-weight="700" fill="#1f2937">Q1</text>
<rect x="120" y="110" width="109.5" height="8" rx="4" fill="#336791" opacity="0.95"/>
<text x="237.5" y="117" font-family="Helvetica, Arial, sans-serif" font-size="11" fill="#6b7280">21.9s</text>
<rect x="120" y="122" width="81.2" height="8" rx="4" fill="#F4B400" opacity="0.95"/>
<text x="209.2" y="129" font-family="Helvetica, Arial, sans-serif" font-size="11" fill="#6b7280">16.2s</text>
<rect x="120" y="134" width="25.4" height="8" rx="4" fill="#C63D2F" opacity="0.95"/>
<text x="153.4" y="141" font-family="Helvetica, Arial, sans-serif" font-size="11" fill="#6b7280">5.1s</text>
<text x="1110" y="126" text-anchor="end" font-family="Helvetica, Arial, sans-serif" font-size="12" font-weight="700" fill="#B91C1C">volvec 4.32x</text>
<text x="104" y="168" text-anchor="end" font-family="Helvetica, Arial, sans-serif" font-size="13" font-weight="700" fill="#1f2937">Q2</text>
<rect x="120" y="152" width="900.0" height="8" rx="4" fill="#336791" opacity="0.95"/>
<text x="1028.0" y="159" font-family="Helvetica, Arial, sans-serif" font-size="11" fill="#6b7280">180.0s</text>
<rect x="120" y="164" width="10.5" height="8" rx="4" fill="#F4B400" opacity="0.95"/>
<text x="138.5" y="171" font-family="Helvetica, Arial, sans-serif" font-size="11" fill="#6b7280">2.1s</text>
<rect x="120" y="176" width="900.0" height="8" rx="4" fill="#C63D2F" opacity="0.95"/>
<text x="1028.0" y="183" font-family="Helvetica, Arial, sans-serif" font-size="11" fill="#6b7280">180.0s</text>
<text x="1110" y="168" text-anchor="end" font-family="Helvetica, Arial, sans-serif" font-size="12" font-weight="700" fill="#B7791F">duckdb 85.71x</text>
<text x="104" y="210" text-anchor="end" font-family="Helvetica, Arial, sans-serif" font-size="13" font-weight="700" fill="#1f2937">Q3</text>
<rect x="120" y="194" width="114.4" height="8" rx="4" fill="#336791" opacity="0.95"/>
<text x="242.4" y="201" font-family="Helvetica, Arial, sans-serif" font-size="11" fill="#6b7280">22.9s</text>
<rect x="120" y="206" width="39.8" height="8" rx="4" fill="#F4B400" opacity="0.95"/>
<text x="167.8" y="213" font-family="Helvetica, Arial, sans-serif" font-size="11" fill="#6b7280">8.0s</text>
<rect x="120" y="218" width="42.6" height="8" rx="4" fill="#C63D2F" opacity="0.95"/>
<text x="170.6" y="225" font-family="Helvetica, Arial, sans-serif" font-size="11" fill="#6b7280">8.5s</text>
<text x="1110" y="210" text-anchor="end" font-family="Helvetica, Arial, sans-serif" font-size="12" font-weight="700" fill="#B7791F">duckdb 2.87x</text>
<text x="104" y="252" text-anchor="end" font-family="Helvetica, Arial, sans-serif" font-size="13" font-weight="700" fill="#1f2937">Q4</text>
<rect x="120" y="236" width="56.6" height="8" rx="4" fill="#336791" opacity="0.95"/>
<text x="184.6" y="243" font-family="Helvetica, Arial, sans-serif" font-size="11" fill="#6b7280">11.3s</text>
<rect x="120" y="248" width="34.8" height="8" rx="4" fill="#F4B400" opacity="0.95"/>
<text x="162.8" y="255" font-family="Helvetica, Arial, sans-serif" font-size="11" fill="#6b7280">7.0s</text>
<rect x="120" y="260" width="37.2" height="8" rx="4" fill="#C63D2F" opacity="0.95"/>
<text x="165.2" y="267" font-family="Helvetica, Arial, sans-serif" font-size="11" fill="#6b7280">7.4s</text>
<text x="1110" y="252" text-anchor="end" font-family="Helvetica, Arial, sans-serif" font-size="12" font-weight="700" fill="#B7791F">duckdb 1.62x</text>
<text x="104" y="294" text-anchor="end" font-family="Helvetica, Arial, sans-serif" font-size="13" font-weight="700" fill="#1f2937">Q5</text>
<rect x="120" y="278" width="28.5" height="8" rx="4" fill="#336791" opacity="0.95"/>
<text x="156.5" y="285" font-family="Helvetica, Arial, sans-serif" font-size="11" fill="#6b7280">5.7s</text>
<rect x="120" y="290" width="51.2" height="8" rx="4" fill="#F4B400" opacity="0.95"/>
<text x="179.2" y="297" font-family="Helvetica, Arial, sans-serif" font-size="11" fill="#6b7280">10.2s</text>
<rect x="120" y="302" width="18.3" height="8" rx="4" fill="#C63D2F" opacity="0.95"/>
<text x="146.3" y="309" font-family="Helvetica, Arial, sans-serif" font-size="11" fill="#6b7280">3.7s</text>
<text x="1110" y="294" text-anchor="end" font-family="Helvetica, Arial, sans-serif" font-size="12" font-weight="700" fill="#B91C1C">volvec 1.56x</text>
<text x="104" y="336" text-anchor="end" font-family="Helvetica, Arial, sans-serif" font-size="13" font-weight="700" fill="#1f2937">Q6</text>
<rect x="120" y="320" width="16.1" height="8" rx="4" fill="#336791" opacity="0.95"/>
<text x="144.1" y="327" font-family="Helvetica, Arial, sans-serif" font-size="11" fill="#6b7280">3.2s</text>
<rect x="120" y="332" width="22.9" height="8" rx="4" fill="#F4B400" opacity="0.95"/>
<text x="150.9" y="339" font-family="Helvetica, Arial, sans-serif" font-size="11" fill="#6b7280">4.6s</text>
<rect x="120" y="344" width="13.4" height="8" rx="4" fill="#C63D2F" opacity="0.95"/>
<text x="141.4" y="351" font-family="Helvetica, Arial, sans-serif" font-size="11" fill="#6b7280">2.7s</text>
<text x="1110" y="336" text-anchor="end" font-family="Helvetica, Arial, sans-serif" font-size="12" font-weight="700" fill="#B91C1C">volvec 1.20x</text>
<text x="104" y="378" text-anchor="end" font-family="Helvetica, Arial, sans-serif" font-size="13" font-weight="700" fill="#1f2937">Q7</text>
<rect x="120" y="362" width="29.9" height="8" rx="4" fill="#336791" opacity="0.95"/>
<text x="157.9" y="369" font-family="Helvetica, Arial, sans-serif" font-size="11" fill="#6b7280">6.0s</text>
<rect x="120" y="374" width="36.0" height="8" rx="4" fill="#F4B400" opacity="0.95"/>
<text x="164.0" y="381" font-family="Helvetica, Arial, sans-serif" font-size="11" fill="#6b7280">7.2s</text>
<rect x="120" y="386" width="19.6" height="8" rx="4" fill="#C63D2F" opacity="0.95"/>
<text x="147.6" y="393" font-family="Helvetica, Arial, sans-serif" font-size="11" fill="#6b7280">3.9s</text>
<text x="1110" y="378" text-anchor="end" font-family="Helvetica, Arial, sans-serif" font-size="12" font-weight="700" fill="#B91C1C">volvec 1.52x</text>
<text x="104" y="420" text-anchor="end" font-family="Helvetica, Arial, sans-serif" font-size="13" font-weight="700" fill="#1f2937">Q8</text>
<rect x="120" y="404" width="35.2" height="8" rx="4" fill="#336791" opacity="0.95"/>
<text x="163.2" y="411" font-family="Helvetica, Arial, sans-serif" font-size="11" fill="#6b7280">7.0s</text>
<rect x="120" y="416" width="60.1" height="8" rx="4" fill="#F4B400" opacity="0.95"/>
<text x="188.1" y="423" font-family="Helvetica, Arial, sans-serif" font-size="11" fill="#6b7280">12.0s</text>
<rect x="120" y="428" width="20.2" height="8" rx="4" fill="#C63D2F" opacity="0.95"/>
<text x="148.2" y="435" font-family="Helvetica, Arial, sans-serif" font-size="11" fill="#6b7280">4.0s</text>
<text x="1110" y="420" text-anchor="end" font-family="Helvetica, Arial, sans-serif" font-size="12" font-weight="700" fill="#B91C1C">volvec 1.74x</text>
<text x="104" y="462" text-anchor="end" font-family="Helvetica, Arial, sans-serif" font-size="13" font-weight="700" fill="#1f2937">Q9</text>
<rect x="120" y="446" width="90.7" height="8" rx="4" fill="#336791" opacity="0.95"/>
<text x="218.7" y="453" font-family="Helvetica, Arial, sans-serif" font-size="11" fill="#6b7280">18.1s</text>
<rect x="120" y="458" width="81.6" height="8" rx="4" fill="#F4B400" opacity="0.95"/>
<text x="209.6" y="465" font-family="Helvetica, Arial, sans-serif" font-size="11" fill="#6b7280">16.3s</text>
<rect x="120" y="470" width="65.0" height="8" rx="4" fill="#C63D2F" opacity="0.95"/>
<text x="193.0" y="477" font-family="Helvetica, Arial, sans-serif" font-size="11" fill="#6b7280">13.0s</text>
<text x="1110" y="462" text-anchor="end" font-family="Helvetica, Arial, sans-serif" font-size="12" font-weight="700" fill="#B91C1C">volvec 1.40x</text>
<text x="104" y="504" text-anchor="end" font-family="Helvetica, Arial, sans-serif" font-size="13" font-weight="700" fill="#1f2937">Q10</text>
<rect x="120" y="488" width="38.6" height="8" rx="4" fill="#336791" opacity="0.95"/>
<text x="166.6" y="495" font-family="Helvetica, Arial, sans-serif" font-size="11" fill="#6b7280">7.7s</text>
<rect x="120" y="500" width="34.0" height="8" rx="4" fill="#F4B400" opacity="0.95"/>
<text x="162.0" y="507" font-family="Helvetica, Arial, sans-serif" font-size="11" fill="#6b7280">6.8s</text>
<rect x="120" y="512" width="26.1" height="8" rx="4" fill="#C63D2F" opacity="0.95"/>
<text x="154.1" y="519" font-family="Helvetica, Arial, sans-serif" font-size="11" fill="#6b7280">5.2s</text>
<text x="1110" y="504" text-anchor="end" font-family="Helvetica, Arial, sans-serif" font-size="12" font-weight="700" fill="#B91C1C">volvec 1.48x</text>
<text x="104" y="546" text-anchor="end" font-family="Helvetica, Arial, sans-serif" font-size="13" font-weight="700" fill="#1f2937">Q11</text>
<rect x="120" y="530" width="5.6" height="8" rx="4" fill="#336791" opacity="0.95"/>
<text x="133.6" y="537" font-family="Helvetica, Arial, sans-serif" font-size="11" fill="#6b7280">1.1s</text>
<rect x="120" y="542" width="9.3" height="8" rx="4" fill="#F4B400" opacity="0.95"/>
<text x="137.3" y="549" font-family="Helvetica, Arial, sans-serif" font-size="11" fill="#6b7280">1.9s</text>
<rect x="120" y="554" width="4.5" height="8" rx="4" fill="#C63D2F" opacity="0.95"/>
<text x="132.5" y="561" font-family="Helvetica, Arial, sans-serif" font-size="11" fill="#6b7280">0.9s</text>
<text x="1110" y="546" text-anchor="end" font-family="Helvetica, Arial, sans-serif" font-size="12" font-weight="700" fill="#B91C1C">volvec 1.23x</text>
<text x="104" y="588" text-anchor="end" font-family="Helvetica, Arial, sans-serif" font-size="13" font-weight="700" fill="#1f2937">Q12</text>
<rect x="120" y="572" width="41.8" height="8" rx="4" fill="#336791" opacity="0.95"/>
<text x="169.8" y="579" font-family="Helvetica, Arial, sans-serif" font-size="11" fill="#6b7280">8.4s</text>
<rect x="120" y="584" width="33.4" height="8" rx="4" fill="#F4B400" opacity="0.95"/>
<text x="161.4" y="591" font-family="Helvetica, Arial, sans-serif" font-size="11" fill="#6b7280">6.7s</text>
<rect x="120" y="596" width="19.5" height="8" rx="4" fill="#C63D2F" opacity="0.95"/>
<text x="147.5" y="603" font-family="Helvetica, Arial, sans-serif" font-size="11" fill="#6b7280">3.9s</text>
<text x="1110" y="588" text-anchor="end" font-family="Helvetica, Arial, sans-serif" font-size="12" font-weight="700" fill="#B91C1C">volvec 2.14x</text>
<text x="104" y="630" text-anchor="end" font-family="Helvetica, Arial, sans-serif" font-size="13" font-weight="700" fill="#1f2937">Q13</text>
<rect x="120" y="614" width="55.2" height="8" rx="4" fill="#336791" opacity="0.95"/>
<text x="183.2" y="621" font-family="Helvetica, Arial, sans-serif" font-size="11" fill="#6b7280">11.0s</text>
<rect x="120" y="626" width="16.2" height="8" rx="4" fill="#F4B400" opacity="0.95"/>
<text x="144.2" y="633" font-family="Helvetica, Arial, sans-serif" font-size="11" fill="#6b7280">3.2s</text>
<rect x="120" y="638" width="26.2" height="8" rx="4" fill="#C63D2F" opacity="0.95"/>
<text x="154.2" y="645" font-family="Helvetica, Arial, sans-serif" font-size="11" fill="#6b7280">5.2s</text>
<text x="1110" y="630" text-anchor="end" font-family="Helvetica, Arial, sans-serif" font-size="12" font-weight="700" fill="#B7791F">duckdb 3.40x</text>
<text x="104" y="672" text-anchor="end" font-family="Helvetica, Arial, sans-serif" font-size="13" font-weight="700" fill="#1f2937">Q14</text>
<rect x="120" y="656" width="19.4" height="8" rx="4" fill="#336791" opacity="0.95"/>
<text x="147.4" y="663" font-family="Helvetica, Arial, sans-serif" font-size="11" fill="#6b7280">3.9s</text>
<rect x="120" y="668" width="18.7" height="8" rx="4" fill="#F4B400" opacity="0.95"/>
<text x="146.7" y="675" font-family="Helvetica, Arial, sans-serif" font-size="11" fill="#6b7280">3.7s</text>
<rect x="120" y="680" width="14.8" height="8" rx="4" fill="#C63D2F" opacity="0.95"/>
<text x="142.8" y="687" font-family="Helvetica, Arial, sans-serif" font-size="11" fill="#6b7280">3.0s</text>
<text x="1110" y="672" text-anchor="end" font-family="Helvetica, Arial, sans-serif" font-size="12" font-weight="700" fill="#B91C1C">volvec 1.31x</text>
<text x="104" y="714" text-anchor="end" font-family="Helvetica, Arial, sans-serif" font-size="13" font-weight="700" fill="#1f2937">Q15</text>
<rect x="120" y="698" width="21.1" height="8" rx="4" fill="#336791" opacity="0.95"/>
<text x="149.1" y="705" font-family="Helvetica, Arial, sans-serif" font-size="11" fill="#6b7280">4.2s</text>
<rect x="120" y="710" width="16.9" height="8" rx="4" fill="#F4B400" opacity="0.95"/>
<text x="144.9" y="717" font-family="Helvetica, Arial, sans-serif" font-size="11" fill="#6b7280">3.4s</text>
<rect x="120" y="722" width="21.0" height="8" rx="4" fill="#C63D2F" opacity="0.95"/>
<text x="149.0" y="729" font-family="Helvetica, Arial, sans-serif" font-size="11" fill="#6b7280">4.2s</text>
<text x="1110" y="714" text-anchor="end" font-family="Helvetica, Arial, sans-serif" font-size="12" font-weight="700" fill="#B7791F">duckdb 1.25x</text>
<text x="104" y="756" text-anchor="end" font-family="Helvetica, Arial, sans-serif" font-size="13" font-weight="700" fill="#1f2937">Q16</text>
<rect x="120" y="740" width="19.4" height="8" rx="4" fill="#336791" opacity="0.95"/>
<text x="147.4" y="747" font-family="Helvetica, Arial, sans-serif" font-size="11" fill="#6b7280">3.9s</text>
<rect x="120" y="752" width="5.8" height="8" rx="4" fill="#F4B400" opacity="0.95"/>
<text x="133.8" y="759" font-family="Helvetica, Arial, sans-serif" font-size="11" fill="#6b7280">1.2s</text>
<rect x="120" y="764" width="10.1" height="8" rx="4" fill="#C63D2F" opacity="0.95"/>
<text x="138.1" y="771" font-family="Helvetica, Arial, sans-serif" font-size="11" fill="#6b7280">2.0s</text>
<text x="1110" y="756" text-anchor="end" font-family="Helvetica, Arial, sans-serif" font-size="12" font-weight="700" fill="#B7791F">duckdb 3.38x</text>
<text x="104" y="798" text-anchor="end" font-family="Helvetica, Arial, sans-serif" font-size="13" font-weight="700" fill="#1f2937">Q17</text>
<rect x="120" y="782" width="900.0" height="8" rx="4" fill="#336791" opacity="0.95"/>
<text x="1028.0" y="789" font-family="Helvetica, Arial, sans-serif" font-size="11" fill="#6b7280">180.0s</text>
<rect x="120" y="794" width="78.8" height="8" rx="4" fill="#F4B400" opacity="0.95"/>
<text x="206.8" y="801" font-family="Helvetica, Arial, sans-serif" font-size="11" fill="#6b7280">15.8s</text>
<rect x="120" y="806" width="63.5" height="8" rx="4" fill="#C63D2F" opacity="0.95"/>
<text x="191.6" y="813" font-family="Helvetica, Arial, sans-serif" font-size="11" fill="#6b7280">12.7s</text>
<text x="1110" y="798" text-anchor="end" font-family="Helvetica, Arial, sans-serif" font-size="12" font-weight="700" fill="#B91C1C">volvec 14.16x</text>
<text x="104" y="840" text-anchor="end" font-family="Helvetica, Arial, sans-serif" font-size="13" font-weight="700" fill="#1f2937">Q18</text>
<rect x="120" y="824" width="142.0" height="8" rx="4" fill="#336791" opacity="0.95"/>
<text x="270.0" y="831" font-family="Helvetica, Arial, sans-serif" font-size="11" fill="#6b7280">28.4s</text>
<rect x="120" y="836" width="71.9" height="8" rx="4" fill="#F4B400" opacity="0.95"/>
<text x="199.9" y="843" font-family="Helvetica, Arial, sans-serif" font-size="11" fill="#6b7280">14.4s</text>
<rect x="120" y="848" width="61.0" height="8" rx="4" fill="#C63D2F" opacity="0.95"/>
<text x="189.0" y="855" font-family="Helvetica, Arial, sans-serif" font-size="11" fill="#6b7280">12.2s</text>
<text x="1110" y="840" text-anchor="end" font-family="Helvetica, Arial, sans-serif" font-size="12" font-weight="700" fill="#B91C1C">volvec 2.33x</text>
<text x="104" y="882" text-anchor="end" font-family="Helvetica, Arial, sans-serif" font-size="13" font-weight="700" fill="#1f2937">Q19</text>
<rect x="120" y="866" width="27.0" height="8" rx="4" fill="#336791" opacity="0.95"/>
<text x="155.0" y="873" font-family="Helvetica, Arial, sans-serif" font-size="11" fill="#6b7280">5.4s</text>
<rect x="120" y="878" width="40.3" height="8" rx="4" fill="#F4B400" opacity="0.95"/>
<text x="168.3" y="885" font-family="Helvetica, Arial, sans-serif" font-size="11" fill="#6b7280">8.1s</text>
<rect x="120" y="890" width="20.9" height="8" rx="4" fill="#C63D2F" opacity="0.95"/>
<text x="148.9" y="897" font-family="Helvetica, Arial, sans-serif" font-size="11" fill="#6b7280">4.2s</text>
<text x="1110" y="882" text-anchor="end" font-family="Helvetica, Arial, sans-serif" font-size="12" font-weight="700" fill="#B91C1C">volvec 1.29x</text>
<text x="104" y="924" text-anchor="end" font-family="Helvetica, Arial, sans-serif" font-size="13" font-weight="700" fill="#1f2937">Q20</text>
<rect x="120" y="908" width="900.0" height="8" rx="4" fill="#336791" opacity="0.95"/>
<text x="1028.0" y="915" font-family="Helvetica, Arial, sans-serif" font-size="11" fill="#6b7280">180.0s</text>
<rect x="120" y="920" width="26.7" height="8" rx="4" fill="#F4B400" opacity="0.95"/>
<text x="154.7" y="927" font-family="Helvetica, Arial, sans-serif" font-size="11" fill="#6b7280">5.3s</text>
<rect x="120" y="932" width="61.4" height="8" rx="4" fill="#C63D2F" opacity="0.95"/>
<text x="189.4" y="939" font-family="Helvetica, Arial, sans-serif" font-size="11" fill="#6b7280">12.3s</text>
<text x="1110" y="924" text-anchor="end" font-family="Helvetica, Arial, sans-serif" font-size="12" font-weight="700" fill="#B7791F">duckdb 33.72x</text>
<text x="104" y="966" text-anchor="end" font-family="Helvetica, Arial, sans-serif" font-size="13" font-weight="700" fill="#1f2937">Q21</text>
<rect x="120" y="950" width="900.0" height="8" rx="4" fill="#336791" opacity="0.95"/>
<text x="1028.0" y="957" font-family="Helvetica, Arial, sans-serif" font-size="11" fill="#6b7280">180.0s</text>
<rect x="120" y="962" width="93.4" height="8" rx="4" fill="#F4B400" opacity="0.95"/>
<text x="221.4" y="969" font-family="Helvetica, Arial, sans-serif" font-size="11" fill="#6b7280">18.7s</text>
<rect x="120" y="974" width="43.0" height="8" rx="4" fill="#C63D2F" opacity="0.95"/>
<text x="171.0" y="981" font-family="Helvetica, Arial, sans-serif" font-size="11" fill="#6b7280">8.6s</text>
<text x="1110" y="966" text-anchor="end" font-family="Helvetica, Arial, sans-serif" font-size="12" font-weight="700" fill="#B91C1C">volvec 20.91x</text>
<text x="104" y="1008" text-anchor="end" font-family="Helvetica, Arial, sans-serif" font-size="13" font-weight="700" fill="#1f2937">Q22</text>
<rect x="120" y="992" width="13.3" height="8" rx="4" fill="#336791" opacity="0.95"/>
<text x="141.3" y="999" font-family="Helvetica, Arial, sans-serif" font-size="11" fill="#6b7280">2.7s</text>
<rect x="120" y="1004" width="8.7" height="8" rx="4" fill="#F4B400" opacity="0.95"/>
<text x="136.7" y="1011" font-family="Helvetica, Arial, sans-serif" font-size="11" fill="#6b7280">1.7s</text>
<rect x="120" y="1016" width="5.8" height="8" rx="4" fill="#C63D2F" opacity="0.95"/>
<text x="133.8" y="1023" font-family="Helvetica, Arial, sans-serif" font-size="11" fill="#6b7280">1.2s</text>
<text x="1110" y="1008" text-anchor="end" font-family="Helvetica, Arial, sans-serif" font-size="12" font-weight="700" fill="#B91C1C">volvec 2.27x</text>
</svg>