<svg xmlns="http://www.w3.org/2000/svg" width="1190" height="820" viewBox="0 0 1190 820">
<rect width="100%" height="100%" fill="#fffdf8"/>
<text x="120" y="36" font-family="Helvetica, Arial, sans-serif" font-size="28" font-weight="700" fill="#1f2937">pg_volvec TPC-H Timing Snapshot</text>
<text x="120" y="62" font-family="Helvetica, Arial, sans-serif" font-size="14" fill="#6b7280">Local developer machine, no-parallel sessions, latest recorded timing per query. Q21 omitted. TIMEOUT shown as 180s.</text>
<rect x="120" y="74" width="14" height="14" rx="3" fill="#7c8aa5"/>
<text x="142" y="86" font-family="Helvetica, Arial, sans-serif" font-size="13" fill="#1f2937">PostgreSQL native</text>
<rect x="290" y="74" width="14" height="14" rx="3" fill="#d97706"/>
<text x="312" y="86" font-family="Helvetica, Arial, sans-serif" font-size="13" fill="#1f2937">pg_volvec</text>
<line x1="120.0" y1="102" x2="120.0" y2="748" stroke="#e5e7eb" stroke-width="1"/>
<text x="120.0" y="768" text-anchor="middle" font-family="Helvetica, Arial, sans-serif" font-size="12" fill="#6b7280">0s</text>
<line x1="270.0" y1="102" x2="270.0" y2="748" stroke="#e5e7eb" stroke-width="1"/>
<text x="270.0" y="768" text-anchor="middle" font-family="Helvetica, Arial, sans-serif" font-size="12" fill="#6b7280">30s</text>
<line x1="420.0" y1="102" x2="420.0" y2="748" stroke="#e5e7eb" stroke-width="1"/>
<text x="420.0" y="768" text-anchor="middle" font-family="Helvetica, Arial, sans-serif" font-size="12" fill="#6b7280">60s</text>
<line x1="570.0" y1="102" x2="570.0" y2="748" stroke="#e5e7eb" stroke-width="1"/>
<text x="570.0" y="768" text-anchor="middle" font-family="Helvetica, Arial, sans-serif" font-size="12" fill="#6b7280">90s</text>
<line x1="720.0" y1="102" x2="720.0" y2="748" stroke="#e5e7eb" stroke-width="1"/>
<text x="720.0" y="768" text-anchor="middle" font-family="Helvetica, Arial, sans-serif" font-size="12" fill="#6b7280">120s</text>
<line x1="870.0" y1="102" x2="870.0" y2="748" stroke="#e5e7eb" stroke-width="1"/>
<text x="870.0" y="768" text-anchor="middle" font-family="Helvetica, Arial, sans-serif" font-size="12" fill="#6b7280">150s</text>
<line x1="1020.0" y1="102" x2="1020.0" y2="748" stroke="#e5e7eb" stroke-width="1"/>
<text x="1020.0" y="768" text-anchor="middle" font-family="Helvetica, Arial, sans-serif" font-size="12" fill="#6b7280">180s</text>
<line x1="120" y1="748" x2="1020" y2="748" stroke="#1f2937" stroke-width="1.2"/>
<text x="104" y="122" text-anchor="end" font-family="Helvetica, Arial, sans-serif" font-size="13" font-weight="700" fill="#1f2937">Q1</text>
<rect x="120" y="110" width="114.7" height="8" rx="4" fill="#7c8aa5" opacity="0.95"/>
<rect x="120" y="122" width="30.2" height="8" rx="4" fill="#d97706" opacity="0.95"/>
<text x="242.7" y="117" font-family="Helvetica, Arial, sans-serif" font-size="11" fill="#6b7280">22.9s</text>
<text x="158.2" y="129" font-family="Helvetica, Arial, sans-serif" font-size="11" fill="#6b7280">6.0s</text>
<text x="1110" y="126" text-anchor="end" font-family="Helvetica, Arial, sans-serif" font-size="12" font-weight="700" fill="#2563eb">3.79x</text>
<text x="104" y="152" text-anchor="end" font-family="Helvetica, Arial, sans-serif" font-size="13" font-weight="700" fill="#1f2937">Q2</text>
<rect x="120" y="140" width="900.0" height="8" rx="4" fill="#7c8aa5" opacity="0.95"/>
<rect x="120" y="152" width="900.0" height="8" rx="4" fill="#d97706" opacity="0.95"/>
<text x="1028.0" y="147" font-family="Helvetica, Arial, sans-serif" font-size="11" fill="#6b7280">180.0s</text>
<text x="1028.0" y="159" font-family="Helvetica, Arial, sans-serif" font-size="11" fill="#6b7280">180.0s</text>
<text x="1110" y="156" text-anchor="end" font-family="Helvetica, Arial, sans-serif" font-size="12" font-weight="700" fill="#2563eb">1.00x</text>
<text x="104" y="182" text-anchor="end" font-family="Helvetica, Arial, sans-serif" font-size="13" font-weight="700" fill="#1f2937">Q3</text>
<rect x="120" y="170" width="43.1" height="8" rx="4" fill="#7c8aa5" opacity="0.95"/>
<rect x="120" y="182" width="29.7" height="8" rx="4" fill="#d97706" opacity="0.95"/>
<text x="171.1" y="177" font-family="Helvetica, Arial, sans-serif" font-size="11" fill="#6b7280">8.6s</text>
<text x="157.7" y="189" font-family="Helvetica, Arial, sans-serif" font-size="11" fill="#6b7280">5.9s</text>
<text x="1110" y="186" text-anchor="end" font-family="Helvetica, Arial, sans-serif" font-size="12" font-weight="700" fill="#2563eb">1.45x</text>
<text x="104" y="212" text-anchor="end" font-family="Helvetica, Arial, sans-serif" font-size="13" font-weight="700" fill="#1f2937">Q4</text>
<rect x="120" y="200" width="82.5" height="8" rx="4" fill="#7c8aa5" opacity="0.95"/>
<rect x="120" y="212" width="56.7" height="8" rx="4" fill="#d97706" opacity="0.95"/>
<text x="210.5" y="207" font-family="Helvetica, Arial, sans-serif" font-size="11" fill="#6b7280">16.5s</text>
<text x="184.7" y="219" font-family="Helvetica, Arial, sans-serif" font-size="11" fill="#6b7280">11.3s</text>
<text x="1110" y="216" text-anchor="end" font-family="Helvetica, Arial, sans-serif" font-size="12" font-weight="700" fill="#2563eb">1.46x</text>
<text x="104" y="242" text-anchor="end" font-family="Helvetica, Arial, sans-serif" font-size="13" font-weight="700" fill="#1f2937">Q5</text>
<rect x="120" y="230" width="40.6" height="8" rx="4" fill="#7c8aa5" opacity="0.95"/>
<rect x="120" y="242" width="29.2" height="8" rx="4" fill="#d97706" opacity="0.95"/>
<text x="168.6" y="237" font-family="Helvetica, Arial, sans-serif" font-size="11" fill="#6b7280">8.1s</text>
<text x="157.2" y="249" font-family="Helvetica, Arial, sans-serif" font-size="11" fill="#6b7280">5.8s</text>
<text x="1110" y="246" text-anchor="end" font-family="Helvetica, Arial, sans-serif" font-size="12" font-weight="700" fill="#2563eb">1.39x</text>
<text x="104" y="272" text-anchor="end" font-family="Helvetica, Arial, sans-serif" font-size="13" font-weight="700" fill="#1f2937">Q6</text>
<rect x="120" y="260" width="24.3" height="8" rx="4" fill="#7c8aa5" opacity="0.95"/>
<rect x="120" y="272" width="24.2" height="8" rx="4" fill="#d97706" opacity="0.95"/>
<text x="152.3" y="267" font-family="Helvetica, Arial, sans-serif" font-size="11" fill="#6b7280">4.9s</text>
<text x="152.2" y="279" font-family="Helvetica, Arial, sans-serif" font-size="11" fill="#6b7280">4.8s</text>
<text x="1110" y="276" text-anchor="end" font-family="Helvetica, Arial, sans-serif" font-size="12" font-weight="700" fill="#2563eb">1.01x</text>
<text x="104" y="302" text-anchor="end" font-family="Helvetica, Arial, sans-serif" font-size="13" font-weight="700" fill="#1f2937">Q7</text>
<rect x="120" y="290" width="36.7" height="8" rx="4" fill="#7c8aa5" opacity="0.95"/>
<rect x="120" y="302" width="27.6" height="8" rx="4" fill="#d97706" opacity="0.95"/>
<text x="164.7" y="297" font-family="Helvetica, Arial, sans-serif" font-size="11" fill="#6b7280">7.3s</text>
<text x="155.6" y="309" font-family="Helvetica, Arial, sans-serif" font-size="11" fill="#6b7280">5.5s</text>
<text x="1110" y="306" text-anchor="end" font-family="Helvetica, Arial, sans-serif" font-size="12" font-weight="700" fill="#2563eb">1.33x</text>
<text x="104" y="332" text-anchor="end" font-family="Helvetica, Arial, sans-serif" font-size="13" font-weight="700" fill="#1f2937">Q8</text>
<rect x="120" y="320" width="42.1" height="8" rx="4" fill="#7c8aa5" opacity="0.95"/>
<rect x="120" y="332" width="30.8" height="8" rx="4" fill="#d97706" opacity="0.95"/>
<text x="170.1" y="327" font-family="Helvetica, Arial, sans-serif" font-size="11" fill="#6b7280">8.4s</text>
<text x="158.8" y="339" font-family="Helvetica, Arial, sans-serif" font-size="11" fill="#6b7280">6.2s</text>
<text x="1110" y="336" text-anchor="end" font-family="Helvetica, Arial, sans-serif" font-size="12" font-weight="700" fill="#2563eb">1.37x</text>
<text x="104" y="362" text-anchor="end" font-family="Helvetica, Arial, sans-serif" font-size="13" font-weight="700" fill="#1f2937">Q9</text>
<rect x="120" y="350" width="93.8" height="8" rx="4" fill="#7c8aa5" opacity="0.95"/>
<rect x="120" y="362" width="69.2" height="8" rx="4" fill="#d97706" opacity="0.95"/>
<text x="221.8" y="357" font-family="Helvetica, Arial, sans-serif" font-size="11" fill="#6b7280">18.8s</text>
<text x="197.2" y="369" font-family="Helvetica, Arial, sans-serif" font-size="11" fill="#6b7280">13.8s</text>
<text x="1110" y="366" text-anchor="end" font-family="Helvetica, Arial, sans-serif" font-size="12" font-weight="700" fill="#2563eb">1.35x</text>
<text x="104" y="392" text-anchor="end" font-family="Helvetica, Arial, sans-serif" font-size="13" font-weight="700" fill="#1f2937">Q10</text>
<rect x="120" y="380" width="43.4" height="8" rx="4" fill="#7c8aa5" opacity="0.95"/>
<rect x="120" y="392" width="32.3" height="8" rx="4" fill="#d97706" opacity="0.95"/>
<text x="171.4" y="387" font-family="Helvetica, Arial, sans-serif" font-size="11" fill="#6b7280">8.7s</text>
<text x="160.3" y="399" font-family="Helvetica, Arial, sans-serif" font-size="11" fill="#6b7280">6.5s</text>
<text x="1110" y="396" text-anchor="end" font-family="Helvetica, Arial, sans-serif" font-size="12" font-weight="700" fill="#2563eb">1.34x</text>
<text x="104" y="422" text-anchor="end" font-family="Helvetica, Arial, sans-serif" font-size="13" font-weight="700" fill="#1f2937">Q11</text>
<rect x="120" y="410" width="5.6" height="8" rx="4" fill="#7c8aa5" opacity="0.95"/>
<rect x="120" y="422" width="4.6" height="8" rx="4" fill="#d97706" opacity="0.95"/>
<text x="133.6" y="417" font-family="Helvetica, Arial, sans-serif" font-size="11" fill="#6b7280">1.1s</text>
<text x="132.6" y="429" font-family="Helvetica, Arial, sans-serif" font-size="11" fill="#6b7280">0.9s</text>
<text x="1110" y="426" text-anchor="end" font-family="Helvetica, Arial, sans-serif" font-size="12" font-weight="700" fill="#2563eb">1.21x</text>
<text x="104" y="452" text-anchor="end" font-family="Helvetica, Arial, sans-serif" font-size="13" font-weight="700" fill="#1f2937">Q12</text>
<rect x="120" y="440" width="41.6" height="8" rx="4" fill="#7c8aa5" opacity="0.95"/>
<rect x="120" y="452" width="27.3" height="8" rx="4" fill="#d97706" opacity="0.95"/>
<text x="169.6" y="447" font-family="Helvetica, Arial, sans-serif" font-size="11" fill="#6b7280">8.3s</text>
<text x="155.3" y="459" font-family="Helvetica, Arial, sans-serif" font-size="11" fill="#6b7280">5.5s</text>
<text x="1110" y="456" text-anchor="end" font-family="Helvetica, Arial, sans-serif" font-size="12" font-weight="700" fill="#2563eb">1.52x</text>
<text x="104" y="482" text-anchor="end" font-family="Helvetica, Arial, sans-serif" font-size="13" font-weight="700" fill="#1f2937">Q13</text>
<rect x="120" y="470" width="56.4" height="8" rx="4" fill="#7c8aa5" opacity="0.95"/>
<rect x="120" y="482" width="27.5" height="8" rx="4" fill="#d97706" opacity="0.95"/>
<text x="184.4" y="477" font-family="Helvetica, Arial, sans-serif" font-size="11" fill="#6b7280">11.3s</text>
<text x="155.5" y="489" font-family="Helvetica, Arial, sans-serif" font-size="11" fill="#6b7280">5.5s</text>
<text x="1110" y="486" text-anchor="end" font-family="Helvetica, Arial, sans-serif" font-size="12" font-weight="700" fill="#2563eb">2.05x</text>
<text x="104" y="512" text-anchor="end" font-family="Helvetica, Arial, sans-serif" font-size="13" font-weight="700" fill="#1f2937">Q14</text>
<rect x="120" y="500" width="25.5" height="8" rx="4" fill="#7c8aa5" opacity="0.95"/>
<rect x="120" y="512" width="25.1" height="8" rx="4" fill="#d97706" opacity="0.95"/>
<text x="153.5" y="507" font-family="Helvetica, Arial, sans-serif" font-size="11" fill="#6b7280">5.1s</text>
<text x="153.1" y="519" font-family="Helvetica, Arial, sans-serif" font-size="11" fill="#6b7280">5.0s</text>
<text x="1110" y="516" text-anchor="end" font-family="Helvetica, Arial, sans-serif" font-size="12" font-weight="700" fill="#2563eb">1.02x</text>
<text x="104" y="542" text-anchor="end" font-family="Helvetica, Arial, sans-serif" font-size="13" font-weight="700" fill="#1f2937">Q15</text>
<rect x="120" y="530" width="49.7" height="8" rx="4" fill="#7c8aa5" opacity="0.95"/>
<rect x="120" y="542" width="49.2" height="8" rx="4" fill="#d97706" opacity="0.95"/>
<text x="177.7" y="537" font-family="Helvetica, Arial, sans-serif" font-size="11" fill="#6b7280">9.9s</text>
<text x="177.2" y="549" font-family="Helvetica, Arial, sans-serif" font-size="11" fill="#6b7280">9.8s</text>
<text x="1110" y="546" text-anchor="end" font-family="Helvetica, Arial, sans-serif" font-size="12" font-weight="700" fill="#2563eb">1.01x</text>
<text x="104" y="572" text-anchor="end" font-family="Helvetica, Arial, sans-serif" font-size="13" font-weight="700" fill="#1f2937">Q16</text>
<rect x="120" y="560" width="20.4" height="8" rx="4" fill="#7c8aa5" opacity="0.95"/>
<rect x="120" y="572" width="8.6" height="8" rx="4" fill="#d97706" opacity="0.95"/>
<text x="148.4" y="567" font-family="Helvetica, Arial, sans-serif" font-size="11" fill="#6b7280">4.1s</text>
<text x="136.6" y="579" font-family="Helvetica, Arial, sans-serif" font-size="11" fill="#6b7280">1.7s</text>
<text x="1110" y="576" text-anchor="end" font-family="Helvetica, Arial, sans-serif" font-size="12" font-weight="700" fill="#2563eb">2.36x</text>
<text x="104" y="602" text-anchor="end" font-family="Helvetica, Arial, sans-serif" font-size="13" font-weight="700" fill="#1f2937">Q17</text>
<rect x="120" y="590" width="900.0" height="8" rx="4" fill="#7c8aa5" opacity="0.95"/>
<rect x="120" y="602" width="74.0" height="8" rx="4" fill="#d97706" opacity="0.95"/>
<text x="1028.0" y="597" font-family="Helvetica, Arial, sans-serif" font-size="11" fill="#6b7280">180.0s</text>
<text x="202.0" y="609" font-family="Helvetica, Arial, sans-serif" font-size="11" fill="#6b7280">14.8s</text>
<text x="1110" y="606" text-anchor="end" font-family="Helvetica, Arial, sans-serif" font-size="12" font-weight="700" fill="#2563eb">12.16x</text>
<text x="104" y="632" text-anchor="end" font-family="Helvetica, Arial, sans-serif" font-size="13" font-weight="700" fill="#1f2937">Q18</text>
<rect x="120" y="620" width="227.6" height="8" rx="4" fill="#7c8aa5" opacity="0.95"/>
<rect x="120" y="632" width="108.7" height="8" rx="4" fill="#d97706" opacity="0.95"/>
<text x="355.6" y="627" font-family="Helvetica, Arial, sans-serif" font-size="11" fill="#6b7280">45.5s</text>
<text x="236.7" y="639" font-family="Helvetica, Arial, sans-serif" font-size="11" fill="#6b7280">21.7s</text>
<text x="1110" y="636" text-anchor="end" font-family="Helvetica, Arial, sans-serif" font-size="12" font-weight="700" fill="#2563eb">2.09x</text>
<text x="104" y="662" text-anchor="end" font-family="Helvetica, Arial, sans-serif" font-size="13" font-weight="700" fill="#1f2937">Q19</text>
<rect x="120" y="650" width="28.5" height="8" rx="4" fill="#7c8aa5" opacity="0.95"/>
<rect x="120" y="662" width="25.6" height="8" rx="4" fill="#d97706" opacity="0.95"/>
<text x="156.5" y="657" font-family="Helvetica, Arial, sans-serif" font-size="11" fill="#6b7280">5.7s</text>
<text x="153.6" y="669" font-family="Helvetica, Arial, sans-serif" font-size="11" fill="#6b7280">5.1s</text>
<text x="1110" y="666" text-anchor="end" font-family="Helvetica, Arial, sans-serif" font-size="12" font-weight="700" fill="#2563eb">1.12x</text>
<text x="104" y="692" text-anchor="end" font-family="Helvetica, Arial, sans-serif" font-size="13" font-weight="700" fill="#1f2937">Q20</text>
<rect x="120" y="680" width="900.0" height="8" rx="4" fill="#7c8aa5" opacity="0.95"/>
<rect x="120" y="692" width="292.4" height="8" rx="4" fill="#d97706" opacity="0.95"/>
<text x="1028.0" y="687" font-family="Helvetica, Arial, sans-serif" font-size="11" fill="#6b7280">180.0s</text>
<text x="420.4" y="699" font-family="Helvetica, Arial, sans-serif" font-size="11" fill="#6b7280">58.5s</text>
<text x="1110" y="696" text-anchor="end" font-family="Helvetica, Arial, sans-serif" font-size="12" font-weight="700" fill="#2563eb">3.08x</text>
<text x="104" y="722" text-anchor="end" font-family="Helvetica, Arial, sans-serif" font-size="13" font-weight="700" fill="#1f2937">Q22</text>
<rect x="120" y="710" width="16.1" height="8" rx="4" fill="#7c8aa5" opacity="0.95"/>
<rect x="120" y="722" width="8.8" height="8" rx="4" fill="#d97706" opacity="0.95"/>
<text x="144.1" y="717" font-family="Helvetica, Arial, sans-serif" font-size="11" fill="#6b7280">3.2s</text>
<text x="136.8" y="729" font-family="Helvetica, Arial, sans-serif" font-size="11" fill="#6b7280">1.8s</text>
<text x="1110" y="726" text-anchor="end" font-family="Helvetica, Arial, sans-serif" font-size="12" font-weight="700" fill="#2563eb">1.84x</text>
<text x="120" y="796" font-family="Helvetica, Arial, sans-serif" font-size="12" fill="#6b7280">Snapshot sources: 2026-04-08 full sweep, plus 2026-04-09 alternating medians for Q6/Q14/Q15/Q19.</text>
</svg>