<svg xmlns="http://www.w3.org/2000/svg" width="1190" height="1392" viewBox="0 0 1190 1392">
<rect width="100%" height="100%" fill="#fffdf8"/>
<text x="120" y="36" font-family="Helvetica, Arial, sans-serif" font-size="28" font-weight="700" fill="#1f2937">pg_volvec TPC-H Timing Snapshot</text>
<text x="120" y="62" font-family="Helvetica, Arial, sans-serif" font-size="14" fill="#6b7280">Apple M4 Pro, 24GB RAM, macOS 26.3.1 | 3-run medians, PG parallel off | TIMEOUT (180s) shown as short dashed bars (+10%).</text>
<rect x="120" y="74" width="14" height="14" rx="3" fill="#336791"/>
<text x="142" y="86" font-family="Helvetica, Arial, sans-serif" font-size="13" fill="#1f2937">PostgreSQL native</text>
<rect x="310" y="74" width="14" height="14" rx="3" fill="#F4B400"/>
<text x="332" y="86" font-family="Helvetica, Arial, sans-serif" font-size="13" fill="#1f2937">pg_duckdb</text>
<rect x="500" y="74" width="14" height="14" rx="3" fill="#C63D2F"/>
<text x="522" y="86" font-family="Helvetica, Arial, sans-serif" font-size="13" fill="#1f2937">pg_volvec</text>
<line x1="120.0" y1="102" x2="120.0" y2="1332" stroke="#e5e7eb" stroke-width="1"/>
<text x="120.0" y="1352" text-anchor="middle" font-family="Helvetica, Arial, sans-serif" font-size="12" fill="#6b7280">0s</text>
<line x1="264.0613124945977" y1="102" x2="264.0613124945977" y2="1332" stroke="#e5e7eb" stroke-width="1"/>
<text x="264.0613124945977" y="1352" text-anchor="middle" font-family="Helvetica, Arial, sans-serif" font-size="12" fill="#6b7280">5s</text>
<line x1="408.1226249891954" y1="102" x2="408.1226249891954" y2="1332" stroke="#e5e7eb" stroke-width="1"/>
<text x="408.1226249891954" y="1352" text-anchor="middle" font-family="Helvetica, Arial, sans-serif" font-size="12" fill="#6b7280">10s</text>
<line x1="552.1839374837931" y1="102" x2="552.1839374837931" y2="1332" stroke="#e5e7eb" stroke-width="1"/>
<text x="552.1839374837931" y="1352" text-anchor="middle" font-family="Helvetica, Arial, sans-serif" font-size="12" fill="#6b7280">15s</text>
<line x1="696.2452499783908" y1="102" x2="696.2452499783908" y2="1332" stroke="#e5e7eb" stroke-width="1"/>
<text x="696.2452499783908" y="1352" text-anchor="middle" font-family="Helvetica, Arial, sans-serif" font-size="12" fill="#6b7280">20s</text>
<line x1="840.3065624729884" y1="102" x2="840.3065624729884" y2="1332" stroke="#e5e7eb" stroke-width="1"/>
<text x="840.3065624729884" y="1352" text-anchor="middle" font-family="Helvetica, Arial, sans-serif" font-size="12" fill="#6b7280">25s</text>
<line x1="984.3678749675862" y1="102" x2="984.3678749675862" y2="1332" stroke="#e5e7eb" stroke-width="1"/>
<text x="984.3678749675862" y="1352" text-anchor="middle" font-family="Helvetica, Arial, sans-serif" font-size="12" fill="#6b7280">30s</text>
<line x1="120" y1="1332" x2="1020" y2="1332" stroke="#1f2937" stroke-width="1.2"/>
<text x="104" y="131" text-anchor="end" font-family="Helvetica, Arial, sans-serif" font-size="13" font-weight="700" fill="#1f2937">Q1</text>
<rect x="120" y="115" width="630.9" height="8" rx="4" fill="#336791" opacity="0.95"/>
<text x="758.902111938841" y="122" font-family="Helvetica, Arial, sans-serif" font-size="11" fill="#6b7280">21.9s</text>
<rect x="120" y="127" width="468.0" height="8" rx="4" fill="#F4B400" opacity="0.95"/>
<text x="595.9687675074513" y="134" font-family="Helvetica, Arial, sans-serif" font-size="11" fill="#6b7280">16.2s</text>
<rect x="120" y="139" width="146.1" height="8" rx="4" fill="#C63D2F" opacity="0.95"/>
<text x="274.1357953945199" y="146" font-family="Helvetica, Arial, sans-serif" font-size="11" fill="#6b7280">5.1s</text>
<text x="1110" y="131" text-anchor="end" font-family="Helvetica, Arial, sans-serif" font-size="12" font-weight="700" fill="#B91C1C">volvec 4.32x</text>
<text x="104" y="187" text-anchor="end" font-family="Helvetica, Arial, sans-serif" font-size="13" font-weight="700" fill="#1f2937">Q2</text>
<rect x="120" y="171" width="900.0" height="8" rx="4" fill="none" stroke="#336791" stroke-width="1.2" stroke-dasharray="4,2" opacity="0.8"/>
<text x="1028" y="178" font-family="Helvetica, Arial, sans-serif" font-size="11" font-style="italic" fill="#9ca3af">TIMEOUT</text>
<rect x="120" y="183" width="60.5" height="8" rx="4" fill="#F4B400" opacity="0.95"/>
<text x="188.50575124773104" y="190" font-family="Helvetica, Arial, sans-serif" font-size="11" fill="#6b7280">2.1s</text>
<rect x="120" y="195" width="900.0" height="8" rx="4" fill="none" stroke="#C63D2F" stroke-width="1.2" stroke-dasharray="4,2" opacity="0.8"/>
<text x="1028" y="202" font-family="Helvetica, Arial, sans-serif" font-size="11" font-style="italic" fill="#9ca3af">TIMEOUT</text>
<text x="1110" y="187" text-anchor="end" font-family="Helvetica, Arial, sans-serif" font-size="12" font-weight="700" fill="#B7791F">duckdb finished</text>
<text x="104" y="243" text-anchor="end" font-family="Helvetica, Arial, sans-serif" font-size="13" font-weight="700" fill="#1f2937">Q3</text>
<rect x="120" y="227" width="659.1" height="8" rx="4" fill="#336791" opacity="0.95"/>
<text x="787.1381291877823" y="234" font-family="Helvetica, Arial, sans-serif" font-size="11" fill="#6b7280">22.9s</text>
<rect x="120" y="239" width="229.5" height="8" rx="4" fill="#F4B400" opacity="0.95"/>
<text x="357.51848306639306" y="246" font-family="Helvetica, Arial, sans-serif" font-size="11" fill="#6b7280">8.0s</text>
<rect x="120" y="251" width="245.5" height="8" rx="4" fill="#C63D2F" opacity="0.95"/>
<text x="373.45166422829556" y="258" font-family="Helvetica, Arial, sans-serif" font-size="11" fill="#6b7280">8.5s</text>
<text x="1110" y="243" text-anchor="end" font-family="Helvetica, Arial, sans-serif" font-size="12" font-weight="700" fill="#B7791F">duckdb 2.87x</text>
<text x="104" y="299" text-anchor="end" font-family="Helvetica, Arial, sans-serif" font-size="13" font-weight="700" fill="#1f2937">Q4</text>
<rect x="120" y="283" width="326.0" height="8" rx="4" fill="#336791" opacity="0.95"/>
<text x="453.9531256502767" y="290" font-family="Helvetica, Arial, sans-serif" font-size="11" fill="#6b7280">11.3s</text>
<rect x="120" y="295" width="200.7" height="8" rx="4" fill="#F4B400" opacity="0.95"/>
<text x="328.7350328299724" y="302" font-family="Helvetica, Arial, sans-serif" font-size="11" fill="#6b7280">7.0s</text>
<rect x="120" y="307" width="214.3" height="8" rx="4" fill="#C63D2F" opacity="0.95"/>
<text x="342.27679620446463" y="314" font-family="Helvetica, Arial, sans-serif" font-size="11" fill="#6b7280">7.4s</text>
<text x="1110" y="299" text-anchor="end" font-family="Helvetica, Arial, sans-serif" font-size="12" font-weight="700" fill="#B7791F">duckdb 1.62x</text>
<text x="104" y="355" text-anchor="end" font-family="Helvetica, Arial, sans-serif" font-size="13" font-weight="700" fill="#1f2937">Q5</text>
<rect x="120" y="339" width="164.5" height="8" rx="4" fill="#336791" opacity="0.95"/>
<text x="292.48920660633166" y="346" font-family="Helvetica, Arial, sans-serif" font-size="11" fill="#6b7280">5.7s</text>
<rect x="120" y="351" width="295.2" height="8" rx="4" fill="#F4B400" opacity="0.95"/>
<text x="423.23925382642847" y="358" font-family="Helvetica, Arial, sans-serif" font-size="11" fill="#6b7280">10.2s</text>
<rect x="120" y="363" width="105.3" height="8" rx="4" fill="#C63D2F" opacity="0.95"/>
<text x="233.2511949085531" y="370" font-family="Helvetica, Arial, sans-serif" font-size="11" fill="#6b7280">3.7s</text>
<text x="1110" y="355" text-anchor="end" font-family="Helvetica, Arial, sans-serif" font-size="12" font-weight="700" fill="#B91C1C">volvec 1.56x</text>
<text x="104" y="411" text-anchor="end" font-family="Helvetica, Arial, sans-serif" font-size="13" font-weight="700" fill="#1f2937">Q6</text>
<rect x="120" y="395" width="92.7" height="8" rx="4" fill="#336791" opacity="0.95"/>
<text x="220.74667298402198" y="402" font-family="Helvetica, Arial, sans-serif" font-size="11" fill="#6b7280">3.2s</text>
<rect x="120" y="407" width="132.0" height="8" rx="4" fill="#F4B400" opacity="0.95"/>
<text x="260.0465990325482" y="414" font-family="Helvetica, Arial, sans-serif" font-size="11" fill="#6b7280">4.6s</text>
<rect x="120" y="419" width="77.5" height="8" rx="4" fill="#C63D2F" opacity="0.95"/>
<text x="205.50498612209356" y="426" font-family="Helvetica, Arial, sans-serif" font-size="11" fill="#6b7280">2.7s</text>
<text x="1110" y="411" text-anchor="end" font-family="Helvetica, Arial, sans-serif" font-size="12" font-weight="700" fill="#B91C1C">volvec 1.20x</text>
<text x="104" y="467" text-anchor="end" font-family="Helvetica, Arial, sans-serif" font-size="13" font-weight="700" fill="#1f2937">Q7</text>
<rect x="120" y="451" width="172.2" height="8" rx="4" fill="#336791" opacity="0.95"/>
<text x="300.15326843104424" y="458" font-family="Helvetica, Arial, sans-serif" font-size="11" fill="#6b7280">6.0s</text>
<rect x="120" y="463" width="207.2" height="8" rx="4" fill="#F4B400" opacity="0.95"/>
<text x="335.21779189222934" y="470" font-family="Helvetica, Arial, sans-serif" font-size="11" fill="#6b7280">7.2s</text>
<rect x="120" y="475" width="113.2" height="8" rx="4" fill="#C63D2F" opacity="0.95"/>
<text x="241.20337935825486" y="482" font-family="Helvetica, Arial, sans-serif" font-size="11" fill="#6b7280">3.9s</text>
<text x="1110" y="467" text-anchor="end" font-family="Helvetica, Arial, sans-serif" font-size="12" font-weight="700" fill="#B91C1C">volvec 1.52x</text>
<text x="104" y="523" text-anchor="end" font-family="Helvetica, Arial, sans-serif" font-size="13" font-weight="700" fill="#1f2937">Q8</text>
<rect x="120" y="507" width="202.6" height="8" rx="4" fill="#336791" opacity="0.95"/>
<text x="330.60782989240215" y="514" font-family="Helvetica, Arial, sans-serif" font-size="11" fill="#6b7280">7.0s</text>
<rect x="120" y="519" width="346.4" height="8" rx="4" fill="#F4B400" opacity="0.95"/>
<text x="474.3810197620107" y="526" font-family="Helvetica, Arial, sans-serif" font-size="11" fill="#6b7280">12.0s</text>
<rect x="120" y="531" width="116.5" height="8" rx="4" fill="#C63D2F" opacity="0.95"/>
<text x="244.45916502063278" y="538" font-family="Helvetica, Arial, sans-serif" font-size="11" fill="#6b7280">4.0s</text>
<text x="1110" y="523" text-anchor="end" font-family="Helvetica, Arial, sans-serif" font-size="12" font-weight="700" fill="#B91C1C">volvec 1.74x</text>
<text x="104" y="579" text-anchor="end" font-family="Helvetica, Arial, sans-serif" font-size="13" font-weight="700" fill="#1f2937">Q9</text>
<rect x="120" y="563" width="522.7" height="8" rx="4" fill="#336791" opacity="0.95"/>
<text x="650.6544417304004" y="570" font-family="Helvetica, Arial, sans-serif" font-size="11" fill="#6b7280">18.1s</text>
<rect x="120" y="575" width="470.0" height="8" rx="4" fill="#F4B400" opacity="0.95"/>
<text x="597.9856258823755" y="582" font-family="Helvetica, Arial, sans-serif" font-size="11" fill="#6b7280">16.3s</text>
<rect x="120" y="587" width="374.6" height="8" rx="4" fill="#C63D2F" opacity="0.95"/>
<text x="502.5882247484529" y="594" font-family="Helvetica, Arial, sans-serif" font-size="11" fill="#6b7280">13.0s</text>
<text x="1110" y="579" text-anchor="end" font-family="Helvetica, Arial, sans-serif" font-size="12" font-weight="700" fill="#B91C1C">volvec 1.40x</text>
<text x="104" y="635" text-anchor="end" font-family="Helvetica, Arial, sans-serif" font-size="13" font-weight="700" fill="#1f2937">Q10</text>
<rect x="120" y="619" width="222.2" height="8" rx="4" fill="#336791" opacity="0.95"/>
<text x="350.22898065416643" y="626" font-family="Helvetica, Arial, sans-serif" font-size="11" fill="#6b7280">7.7s</text>
<rect x="120" y="631" width="195.8" height="8" rx="4" fill="#F4B400" opacity="0.95"/>
<text x="323.80813594265715" y="638" font-family="Helvetica, Arial, sans-serif" font-size="11" fill="#6b7280">6.8s</text>
<rect x="120" y="643" width="150.5" height="8" rx="4" fill="#C63D2F" opacity="0.95"/>
<text x="278.54407155685453" y="650" font-family="Helvetica, Arial, sans-serif" font-size="11" fill="#6b7280">5.2s</text>
<text x="1110" y="635" text-anchor="end" font-family="Helvetica, Arial, sans-serif" font-size="12" font-weight="700" fill="#B91C1C">volvec 1.48x</text>
<text x="104" y="691" text-anchor="end" font-family="Helvetica, Arial, sans-serif" font-size="13" font-weight="700" fill="#1f2937">Q11</text>
<rect x="120" y="675" width="32.2" height="8" rx="4" fill="#336791" opacity="0.95"/>
<text x="160.24092173629094" y="682" font-family="Helvetica, Arial, sans-serif" font-size="11" fill="#6b7280">1.1s</text>
<rect x="120" y="687" width="53.7" height="8" rx="4" fill="#F4B400" opacity="0.95"/>
<text x="181.73486956048492" y="694" font-family="Helvetica, Arial, sans-serif" font-size="11" fill="#6b7280">1.9s</text>
<rect x="120" y="699" width="26.2" height="8" rx="4" fill="#C63D2F" opacity="0.95"/>
<text x="154.16153434901895" y="706" font-family="Helvetica, Arial, sans-serif" font-size="11" fill="#6b7280">0.9s</text>
<text x="1110" y="691" text-anchor="end" font-family="Helvetica, Arial, sans-serif" font-size="12" font-weight="700" fill="#B91C1C">volvec 1.23x</text>
<text x="104" y="747" text-anchor="end" font-family="Helvetica, Arial, sans-serif" font-size="13" font-weight="700" fill="#1f2937">Q12</text>
<rect x="120" y="731" width="240.6" height="8" rx="4" fill="#336791" opacity="0.95"/>
<text x="368.6112041284771" y="738" font-family="Helvetica, Arial, sans-serif" font-size="11" fill="#6b7280">8.4s</text>
<rect x="120" y="743" width="192.4" height="8" rx="4" fill="#F4B400" opacity="0.95"/>
<text x="320.37947670528575" y="750" font-family="Helvetica, Arial, sans-serif" font-size="11" fill="#6b7280">6.7s</text>
<rect x="120" y="755" width="112.6" height="8" rx="4" fill="#C63D2F" opacity="0.95"/>
<text x="240.56950958327863" y="762" font-family="Helvetica, Arial, sans-serif" font-size="11" fill="#6b7280">3.9s</text>
<text x="1110" y="747" text-anchor="end" font-family="Helvetica, Arial, sans-serif" font-size="12" font-weight="700" fill="#B91C1C">volvec 2.14x</text>
<text x="104" y="803" text-anchor="end" font-family="Helvetica, Arial, sans-serif" font-size="13" font-weight="700" fill="#1f2937">Q13</text>
<rect x="120" y="787" width="317.9" height="8" rx="4" fill="#336791" opacity="0.95"/>
<text x="445.88569215057925" y="794" font-family="Helvetica, Arial, sans-serif" font-size="11" fill="#6b7280">11.0s</text>
<rect x="120" y="799" width="93.5" height="8" rx="4" fill="#F4B400" opacity="0.95"/>
<text x="221.52460407149283" y="806" font-family="Helvetica, Arial, sans-serif" font-size="11" fill="#6b7280">3.2s</text>
<rect x="120" y="811" width="151.2" height="8" rx="4" fill="#C63D2F" opacity="0.95"/>
<text x="279.23556585682866" y="818" font-family="Helvetica, Arial, sans-serif" font-size="11" fill="#6b7280">5.2s</text>
<text x="1110" y="803" text-anchor="end" font-family="Helvetica, Arial, sans-serif" font-size="12" font-weight="700" fill="#B7791F">duckdb 3.40x</text>
<text x="104" y="859" text-anchor="end" font-family="Helvetica, Arial, sans-serif" font-size="13" font-weight="700" fill="#1f2937">Q14</text>
<rect x="120" y="843" width="111.9" height="8" rx="4" fill="#336791" opacity="0.95"/>
<text x="239.87801528330456" y="850" font-family="Helvetica, Arial, sans-serif" font-size="11" fill="#6b7280">3.9s</text>
<rect x="120" y="855" width="107.6" height="8" rx="4" fill="#F4B400" opacity="0.95"/>
<text x="235.61380043346446" y="862" font-family="Helvetica, Arial, sans-serif" font-size="11" fill="#6b7280">3.7s</text>
<rect x="120" y="867" width="85.3" height="8" rx="4" fill="#C63D2F" opacity="0.95"/>
<text x="213.28429699680186" y="874" font-family="Helvetica, Arial, sans-serif" font-size="11" fill="#6b7280">3.0s</text>
<text x="1110" y="859" text-anchor="end" font-family="Helvetica, Arial, sans-serif" font-size="12" font-weight="700" fill="#B91C1C">volvec 1.31x</text>
<text x="104" y="915" text-anchor="end" font-family="Helvetica, Arial, sans-serif" font-size="13" font-weight="700" fill="#1f2937">Q15</text>
<rect x="120" y="899" width="121.5" height="8" rx="4" fill="#336791" opacity="0.95"/>
<text x="249.47249869544478" y="906" font-family="Helvetica, Arial, sans-serif" font-size="11" fill="#6b7280">4.2s</text>
<rect x="120" y="911" width="97.4" height="8" rx="4" fill="#F4B400" opacity="0.95"/>
<text x="225.4430717713459" y="918" font-family="Helvetica, Arial, sans-serif" font-size="11" fill="#6b7280">3.4s</text>
<rect x="120" y="923" width="120.9" height="8" rx="4" fill="#C63D2F" opacity="0.95"/>
<text x="248.9250657079653" y="930" font-family="Helvetica, Arial, sans-serif" font-size="11" fill="#6b7280">4.2s</text>
<text x="1110" y="915" text-anchor="end" font-family="Helvetica, Arial, sans-serif" font-size="12" font-weight="700" fill="#B7791F">duckdb 1.25x</text>
<text x="104" y="971" text-anchor="end" font-family="Helvetica, Arial, sans-serif" font-size="13" font-weight="700" fill="#1f2937">Q16</text>
<rect x="120" y="955" width="111.9" height="8" rx="4" fill="#336791" opacity="0.95"/>
<text x="239.9356398083024" y="962" font-family="Helvetica, Arial, sans-serif" font-size="11" fill="#6b7280">3.9s</text>
<rect x="120" y="967" width="33.2" height="8" rx="4" fill="#F4B400" opacity="0.95"/>
<text x="161.1629141362564" y="974" font-family="Helvetica, Arial, sans-serif" font-size="11" fill="#6b7280">1.2s</text>
<rect x="120" y="979" width="58.3" height="8" rx="4" fill="#C63D2F" opacity="0.95"/>
<text x="186.31601929781314" y="986" font-family="Helvetica, Arial, sans-serif" font-size="11" fill="#6b7280">2.0s</text>
<text x="1110" y="971" text-anchor="end" font-family="Helvetica, Arial, sans-serif" font-size="12" font-weight="700" fill="#B7791F">duckdb 3.38x</text>
<text x="104" y="1027" text-anchor="end" font-family="Helvetica, Arial, sans-serif" font-size="13" font-weight="700" fill="#1f2937">Q17</text>
<rect x="120" y="1011" width="900.0" height="8" rx="4" fill="none" stroke="#336791" stroke-width="1.2" stroke-dasharray="4,2" opacity="0.8"/>
<text x="1028" y="1018" font-family="Helvetica, Arial, sans-serif" font-size="11" font-style="italic" fill="#9ca3af">TIMEOUT</text>
<rect x="120" y="1023" width="453.9" height="8" rx="4" fill="#F4B400" opacity="0.95"/>
<text x="581.8507588829806" y="1030" font-family="Helvetica, Arial, sans-serif" font-size="11" fill="#6b7280">15.8s</text>
<rect x="120" y="1035" width="366.2" height="8" rx="4" fill="#C63D2F" opacity="0.95"/>
<text x="494.20385636126736" y="1042" font-family="Helvetica, Arial, sans-serif" font-size="11" fill="#6b7280">12.7s</text>
<text x="1110" y="1027" text-anchor="end" font-family="Helvetica, Arial, sans-serif" font-size="12" font-weight="700" fill="#B91C1C">volvec finished</text>
<text x="104" y="1083" text-anchor="end" font-family="Helvetica, Arial, sans-serif" font-size="13" font-weight="700" fill="#1f2937">Q18</text>
<rect x="120" y="1067" width="818.2" height="8" rx="4" fill="#336791" opacity="0.95"/>
<text x="946.181818181818" y="1074" font-family="Helvetica, Arial, sans-serif" font-size="11" fill="#6b7280">28.4s</text>
<rect x="120" y="1079" width="414.4" height="8" rx="4" fill="#F4B400" opacity="0.95"/>
<text x="542.3779592594608" y="1086" font-family="Helvetica, Arial, sans-serif" font-size="11" fill="#6b7280">14.4s</text>
<rect x="120" y="1091" width="351.4" height="8" rx="4" fill="#C63D2F" opacity="0.95"/>
<text x="479.4231656993216" y="1098" font-family="Helvetica, Arial, sans-serif" font-size="11" fill="#6b7280">12.2s</text>
<text x="1110" y="1083" text-anchor="end" font-family="Helvetica, Arial, sans-serif" font-size="12" font-weight="700" fill="#B91C1C">volvec 2.33x</text>
<text x="104" y="1139" text-anchor="end" font-family="Helvetica, Arial, sans-serif" font-size="13" font-weight="700" fill="#1f2937">Q19</text>
<rect x="120" y="1123" width="155.6" height="8" rx="4" fill="#336791" opacity="0.95"/>
<text x="283.64384201916334" y="1130" font-family="Helvetica, Arial, sans-serif" font-size="11" fill="#6b7280">5.4s</text>
<rect x="120" y="1135" width="232.5" height="8" rx="4" fill="#F4B400" opacity="0.95"/>
<text x="360.4861461037817" y="1142" font-family="Helvetica, Arial, sans-serif" font-size="11" fill="#6b7280">8.1s</text>
<rect x="120" y="1147" width="120.4" height="8" rx="4" fill="#C63D2F" opacity="0.95"/>
<text x="248.40644498298474" y="1154" font-family="Helvetica, Arial, sans-serif" font-size="11" fill="#6b7280">4.2s</text>
<text x="1110" y="1139" text-anchor="end" font-family="Helvetica, Arial, sans-serif" font-size="12" font-weight="700" fill="#B91C1C">volvec 1.29x</text>
<text x="104" y="1195" text-anchor="end" font-family="Helvetica, Arial, sans-serif" font-size="13" font-weight="700" fill="#1f2937">Q20</text>
<rect x="120" y="1179" width="900.0" height="8" rx="4" fill="none" stroke="#336791" stroke-width="1.2" stroke-dasharray="4,2" opacity="0.8"/>
<text x="1028" y="1186" font-family="Helvetica, Arial, sans-serif" font-size="11" font-style="italic" fill="#9ca3af">TIMEOUT</text>
<rect x="120" y="1191" width="153.8" height="8" rx="4" fill="#F4B400" opacity="0.95"/>
<text x="281.79985721923254" y="1198" font-family="Helvetica, Arial, sans-serif" font-size="11" fill="#6b7280">5.3s</text>
<rect x="120" y="1203" width="354.0" height="8" rx="4" fill="#C63D2F" opacity="0.95"/>
<text x="481.9874570617254" y="1210" font-family="Helvetica, Arial, sans-serif" font-size="11" fill="#6b7280">12.3s</text>
<text x="1110" y="1195" text-anchor="end" font-family="Helvetica, Arial, sans-serif" font-size="12" font-weight="700" fill="#B7791F">duckdb finished</text>
<text x="104" y="1251" text-anchor="end" font-family="Helvetica, Arial, sans-serif" font-size="13" font-weight="700" fill="#1f2937">Q21</text>
<rect x="120" y="1235" width="900.0" height="8" rx="4" fill="none" stroke="#336791" stroke-width="1.2" stroke-dasharray="4,2" opacity="0.8"/>
<text x="1028" y="1242" font-family="Helvetica, Arial, sans-serif" font-size="11" font-style="italic" fill="#9ca3af">TIMEOUT</text>
<rect x="120" y="1247" width="538.1" height="8" rx="4" fill="#F4B400" opacity="0.95"/>
<text x="666.0978144298213" y="1254" font-family="Helvetica, Arial, sans-serif" font-size="11" fill="#6b7280">18.7s</text>
<rect x="120" y="1259" width="248.0" height="8" rx="4" fill="#C63D2F" opacity="0.95"/>
<text x="376.0159555906994" y="1266" font-family="Helvetica, Arial, sans-serif" font-size="11" fill="#6b7280">8.6s</text>
<text x="1110" y="1251" text-anchor="end" font-family="Helvetica, Arial, sans-serif" font-size="12" font-weight="700" fill="#B91C1C">volvec finished</text>
<text x="104" y="1307" text-anchor="end" font-family="Helvetica, Arial, sans-serif" font-size="13" font-weight="700" fill="#1f2937">Q22</text>
<rect x="120" y="1291" width="76.5" height="8" rx="4" fill="#336791" opacity="0.95"/>
<text x="204.46774467213243" y="1298" font-family="Helvetica, Arial, sans-serif" font-size="11" fill="#6b7280">2.7s</text>
<rect x="120" y="1303" width="50.0" height="8" rx="4" fill="#F4B400" opacity="0.95"/>
<text x="177.98927543562542" y="1310" font-family="Helvetica, Arial, sans-serif" font-size="11" fill="#6b7280">1.7s</text>
<rect x="120" y="1315" width="33.7" height="8" rx="4" fill="#C63D2F" opacity="0.95"/>
<text x="161.65272259873802" y="1322" font-family="Helvetica, Arial, sans-serif" font-size="11" fill="#6b7280">1.2s</text>
<text x="1110" y="1307" text-anchor="end" font-family="Helvetica, Arial, sans-serif" font-size="12" font-weight="700" fill="#B91C1C">volvec 2.27x</text>
</svg>